<svg width="22" height="21" viewBox="0 0 22 21" fill="none" xmlns="http://www.w3.org/2000/svg">
<rect width="22" height="21" rx="2" fill="#444040"/>
<path d="M8.85428 5.58334L8.07788 5.0683V6V11.7697C8.07788 12.1225 7.99828 12.4179 7.85065 12.6702L7.84992 12.6715C7.7068 12.9177 7.49865 13.1172 7.20885 13.2696C6.92744 13.4149 6.57127 13.4981 6.12272 13.4981C5.67455 13.4981 5.31861 13.415 5.03732 13.27C4.75059 13.1178 4.5411 12.9178 4.3943 12.6694C4.24698 12.4173 4.16755 12.1221 4.16755 11.7697V6V5.0683L3.39115 5.58334L2.28006 6.32041L2.05646 6.46874V6.73707V11.8561C2.05646 12.5453 2.22449 13.1774 2.56984 13.7378L2.56983 13.7378L2.57176 13.7409C2.9191 14.2956 3.40477 14.7279 4.0133 15.0392L4.01521 15.0402C4.63258 15.3527 5.34007 15.5 6.12272 15.5C6.90536 15.5 7.61285 15.3527 8.23023 15.0402L8.23213 15.0392C8.84075 14.7278 9.32539 14.2952 9.66992 13.7398C10.0189 13.179 10.189 12.5462 10.189 11.8561V6.73707V6.46874L9.96537 6.32041L8.85428 5.58334ZM13.8427 5.95077L13.7232 5.77353L13.5124 5.73751L12.165 5.50716L11.0187 5.31119L11.6651 6.27793L14.4362 10.4223L11.6651 14.5666L11.0056 15.553L12.1721 15.3361L13.5196 15.0856L13.722 15.048L13.8392 14.8787L15.7935 12.0562L17.7829 14.8819L17.8993 15.0471L18.0977 15.0851L19.406 15.3356L20.5618 15.5569L19.9188 14.5713L17.2117 10.4223L19.9188 6.27322L20.5487 5.30766L19.4133 5.50758L18.1051 5.73793L17.8982 5.77435L17.7794 5.94755L15.7935 8.84312L13.8427 5.95077Z" fill="white" stroke="#1E1E1E"/>
<path d="M6 3C5.44772 3 5 3.44772 5 4C5 4.55228 5.5 5 5.5 5H6.5C6.5 5 7 4.5 7 4C7 3.5 6.55228 3 6 3Z" fill="white"/>
<path d="M6.5 5H5.5V5.5C5.5 5.77614 5.72386 6 6 6V6C6.27614 6 6.5 5.77614 6.5 5.5V5Z" fill="white"/>
<path d="M5.5 5C5.5 5 5 4.55228 5 4C5 3.44772 5.44772 3 6 3C6.55228 3 7 3.5 7 4C7 4.5 6.5 5 6.5 5M5.5 5H6.5M5.5 5V5.5C5.5 5.77614 5.72386 6 6 6V6C6.27614 6 6.5 5.77614 6.5 5.5V5" stroke="#1E1E1E" stroke-width="0.5"/>
<path d="M6 1V2" stroke="white" stroke-width="0.5" stroke-linecap="round"/>
<path d="M8 3.15253L7.57443 3.34789" stroke="white" stroke-width="0.5" stroke-linecap="round"/>
<path d="M4 3.09912L4.40821 3.33386" stroke="white" stroke-width="0.5" stroke-linecap="round"/>
</svg>
